<svg xmlns="http://www.w3.org/2000/svg" viewBox="0 0 113 49"><g fill="none" class="nc-icon-wrapper"><path d="M25.452 24.48v1.26H16.02v-1.26l.648-.072c.72-.072 1.248-.216 1.584-.432.36-.216.54-.528.54-.936 0-.336-.084-.708-.252-1.116L16.92 18h-9.9l-1.584 3.924c-.168.408-.252.768-.252 1.08 0 .408.168.732.504.972.336.216.84.36 1.512.432l.648.072v1.26H0v-1.26l.504-.072c.648-.096 1.176-.348 1.584-.756.432-.432.84-1.104 1.224-2.016L12.24.288h1.08l8.928 21.384c.408.96.792 1.632 1.152 2.016.384.384.912.624 1.584.72l.468.072zm-9.216-8.136l-4.32-10.44-4.212 10.44h8.532z" fill="#30373E"></path><path d="M50.242 24.48v1.26h-5.256c-.288-.312-.72-.852-1.296-1.62a108.189 108.189 0 0 1-1.656-2.34l-3.996-5.868c-.504-.72-.9-1.188-1.188-1.404-.288-.216-.672-.324-1.152-.324h-1.764v8.208c0 .672.204 1.164.612 1.476.408.288.984.468 1.728.54l.648.072v1.26h-9.504v-1.26l.648-.072c.744-.072 1.32-.252 1.728-.54.408-.312.612-.804.612-1.476V3.888c0-.672-.204-1.152-.612-1.44-.408-.312-.984-.504-1.728-.576l-.648-.072V.54h10.476c1.536 0 2.976.228 4.32.684 1.344.432 2.436 1.14 3.276 2.124.864.96 1.296 2.196 1.296 3.708 0 1.728-.588 3.168-1.764 4.32-1.176 1.128-2.688 1.908-4.536 2.34l4.932 6.948c.984 1.416 1.764 2.376 2.34 2.88.6.48 1.26.768 1.98.864l.504.072zm-12.96-11.952c1.824 0 3.252-.396 4.284-1.188 1.032-.816 1.548-2.112 1.548-3.888 0-1.92-.612-3.276-1.836-4.068-1.2-.792-2.7-1.188-4.5-1.188h-2.844v10.332h3.348z" fill="#30373E"></path><path d="M63.18 26.28c-2.28 0-4.355-.54-6.227-1.62-1.872-1.104-3.36-2.652-4.464-4.644-1.08-1.992-1.62-4.26-1.62-6.804 0-2.568.54-4.848 1.62-6.84 1.104-2.016 2.592-3.576 4.464-4.68C58.825.564 60.9 0 63.18 0s4.356.552 6.228 1.656c1.872 1.08 3.348 2.616 4.428 4.608 1.104 1.992 1.656 4.26 1.656 6.804 0 2.568-.552 4.86-1.656 6.876-1.08 1.992-2.556 3.552-4.428 4.68-1.872 1.104-3.948 1.656-6.228 1.656zm.253-1.62c1.56 0 2.952-.456 4.176-1.368 1.224-.912 2.172-2.184 2.844-3.816.672-1.632 1.008-3.504 1.008-5.616 0-2.28-.336-4.344-1.008-6.192C69.78 5.796 68.797 4.32 67.5 3.24s-2.82-1.62-4.572-1.62c-1.56 0-2.952.456-4.176 1.368-1.2.912-2.148 2.184-2.844 3.816-.672 1.632-1.008 3.504-1.008 5.616 0 2.256.336 4.32 1.008 6.192.696 1.848 1.692 3.324 2.988 4.428 1.296 1.08 2.808 1.62 4.536 1.62z" fill="#30373E"></path><path d="M49.189 29.23a.545.545 0 0 1-.273-.06c-.06-.05-.085-.132-.075-.243.171-.15.297-.277.378-.378.09-.111.151-.197.182-.257.03-.07.05-.137.06-.197a1.386 1.386 0 0 1 .242-.439.433.433 0 0 1 .318.03c.101.04.172.116.212.227.04.131.056.253.046.364-.03.232-.157.454-.379.666-.212.201-.449.297-.711.287zm-5.692 8.083c.353-.252.62-.459.803-.62a2.56 2.56 0 0 0 .439-.5 8.87 8.87 0 0 0 .439-.711c.06-.101.126-.217.196-.349l1.075-1.8.681-1.151.197-.348c.07-.101.116-.177.136-.227a.16.16 0 0 0 0-.137c-.02-.03-.03-.12-.03-.272.01-.162.11-.384.303-.666.191-.283.388-.49.59-.62.202-.132.383-.187.545-.167.161.01.267.146.318.409a.746.746 0 0 1-.076.242c-.03.07-.05.116-.06.136-.273.444-.566.944-.878 1.499-.111.181-.222.373-.333.575a10.04 10.04 0 0 0-.318.56c-.242.424-.505.863-.787 1.317-.303.474-.374.696-.212.666.151-.02.474-.187.968-.5.616-.383 1.388-.792 2.316-1.226.293-.121.47-.126.53-.015.07.1-.02.222-.272.363-1.12.575-2.311 1.347-3.573 2.316-.11.08-.206.156-.287.227-.313.232-.555.424-.727.575a3.514 3.514 0 0 0-.484.53c-.152.212-.353.515-.606.908a61.032 61.032 0 0 1-3.194 4.617c-1.12 1.453-2.235 2.649-3.345 3.587-1.11.949-2.17 1.464-3.178 1.544-.394.02-.692-.05-.894-.212-.353-.302-.418-.71-.196-1.226a5.932 5.932 0 0 1 .938-1.498c.414-.495.752-.873 1.014-1.135a.27.27 0 0 0 .076-.076c2.079-2.099 4.708-4.304 7.886-6.615zm-1.12 2.604c.02-.02.035-.04.046-.06.474-.687.726-1.1.756-1.242.03-.131-.237.015-.802.439-2.502 1.917-4.561 3.734-6.176 5.45l-.045.045c-.111.12-.308.333-.59.635a13.78 13.78 0 0 0-.848 1c-.283.352-.464.65-.545.892-.09.253 0 .379.273.379 1.21-.111 2.497-.873 3.86-2.286 1.352-1.413 2.709-3.163 4.071-5.252z" fill="#30373E"></path><path d="M56.081 29.85c.566.122.792.364.681.727-.11.364-.403.742-.877 1.136a5.43 5.43 0 0 1-1.484.893c-.504.191-.873.181-1.105-.03a9.36 9.36 0 0 0-.56.802c-.202.323-.318.61-.348.862 0 .384.262.55.787.5.525-.05 1.15-.217 1.877-.5.727-.282 1.393-.57 1.998-.862.606-.303.989-.51 1.15-.621a.516.516 0 0 1 .333-.106c.111.01.157.066.137.167-.01.1-.142.242-.394.423-.303.212-.817.515-1.544.909-.716.383-1.478.716-2.285.999-.808.282-1.494.378-2.059.287-.565-.09-.838-.504-.817-1.241.05-.494.333-1.085.847-1.771a9.151 9.151 0 0 1 1.786-1.801c.687-.525 1.312-.782 1.877-.772zm-.302.833c-.091.03-.248.116-.47.258-.222.13-.459.282-.711.454a10.35 10.35 0 0 0-.636.484c-.181.152-.287.262-.318.333-.03.07.06.07.273 0 .292-.11.65-.303 1.075-.575.423-.283.746-.54.968-.772.101-.111.142-.182.121-.212-.01-.03-.11-.02-.302.03z" fill="#30373E"></path><path d="M61.884 33.514c-.666.484-1.11.67-1.332.56-.212-.111-.262-.394-.151-.848.1-.464.302-.974.605-1.528.404-.747.717-1.216.939-1.408.222-.192.454-.207.696-.046a.575.575 0 0 1 0 .621 2.006 2.006 0 0 1-.5.575 2.453 2.453 0 0 0-.53.575 6.59 6.59 0 0 0-.347.666 2.53 2.53 0 0 1-.106.243c-.091.181-.127.297-.106.348.03.04.146-.026.348-.197.343-.263.721-.58 1.135-.954.404-.353.787-.67 1.15-.953.374-.283.687-.45.939-.5.555-.04.928.212 1.12.757.192.545.313 1.07.363 1.574.01.101.02.192.03.273.081.514.187.984.319 1.407.13.424.287.702.469.833.181.131.449.06.802-.212.363-.272.863-.837 1.498-1.695.646-.868 1.469-2.114 2.468-3.74.07-.14.161-.226.272-.256.121-.03.207 0 .258.09.06.091.035.243-.076.454a18.58 18.58 0 0 0-.454.757 56.905 56.905 0 0 1-1.635 2.604c-.616.918-1.241 1.655-1.877 2.21-.626.565-1.196.711-1.71.439-.505-.263-.883-1.186-1.136-2.77-.07-.525-.156-.994-.257-1.408-.1-.424-.217-.64-.348-.65-.192.06-.495.252-.908.574-.404.323-.803.656-1.196 1-.323.272-.57.474-.742.605z" fill="#30373E"></path><path d="M79.342 29.85c.565.122.792.364.681.727-.11.364-.403.742-.877 1.136a5.43 5.43 0 0 1-1.484.893c-.505.191-.873.181-1.105-.03a9.36 9.36 0 0 0-.56.802c-.202.323-.318.61-.348.862 0 .384.262.55.787.5.525-.05 1.15-.217 1.877-.5.727-.282 1.392-.57 1.998-.862.605-.303.989-.51 1.15-.621a.516.516 0 0 1 .333-.106c.111.01.157.066.137.167-.01.1-.142.242-.394.423-.303.212-.817.515-1.544.909-.716.383-1.478.716-2.285.999-.808.282-1.494.378-2.06.287-.564-.09-.837-.504-.816-1.241.05-.494.333-1.085.847-1.771a9.151 9.151 0 0 1 1.786-1.801c.686-.525 1.312-.782 1.877-.772zm-.302.833c-.091.03-.248.116-.47.258-.222.13-.459.282-.711.454a10.35 10.35 0 0 0-.636.484c-.181.152-.287.262-.318.333-.03.07.06.07.273 0 .292-.11.65-.303 1.074-.575.424-.283.747-.54.97-.772.1-.111.14-.182.12-.212-.01-.03-.11-.02-.302.03z" fill="#30373E"></path><path d="M77.486 43.625c-.111-.05-.157-.156-.136-.318.01-.161.12-.434.333-.817.201-.384.53-.944.984-1.68.444-.737 1.039-1.71 1.786-2.922.847-1.352 1.927-3.087 3.239-5.207.343-.645 1.044-1.856 2.104-3.632 1.06-1.787 2.24-3.714 3.542-5.783a132.741 132.741 0 0 1 3.557-5.419c1.08-1.544 1.817-2.406 2.21-2.588.616-.182.918-.03.908.454 0 .474-.171 1.09-.514 1.847a23.089 23.089 0 0 1-1.075 2.119c-.374.656-.62 1.08-.742 1.271-.01.01-.015.02-.015.03a95.77 95.77 0 0 1-4.586 6.721c-1.665 2.25-2.947 3.76-3.845 4.526a3.5 3.5 0 0 1-.348.227c-.05.03-.096.06-.137.091-.03.03-.07.08-.12.151-.051.071-.122.182-.213.334l-6.009 9.793c.03 0 .025.05-.015.151-.05.111-.121.227-.212.349a.855.855 0 0 1-.318.287.39.39 0 0 1-.378.015zm8.658-13.38c-.141.221-.212.348-.212.378.01.03.106-.066.288-.288a92.31 92.31 0 0 0 3.345-4.586 129.229 129.229 0 0 0 3.406-5.192c1.241-2.059 1.957-3.386 2.15-3.981.201-.596-.056-.424-.773.514a72.992 72.992 0 0 0-2.982 4.466 230.587 230.587 0 0 0-2.876 4.783 266.678 266.678 0 0 1-2.346 3.905z" fill="#30373E"></path><path d="M93.763 28.322c-.282-.343-.444-.676-.484-.999-.02-.484.126-.828.439-1.03.313-.201.686-.136 1.12.197.162.182.262.41.303.682.05.272.005.585-.137.938-.06.121-.085.217-.075.288.02.06.096.12.227.181.797.354 1.347.762 1.65 1.226.303.465.166 1.075-.409 1.832-.303.394-.59.878-.863 1.453-.272.565-.358 1.065-.257 1.499.121.282.439.348.954.196.524-.14 1.1-.388 1.725-.741a16.334 16.334 0 0 0 1.62-1.03c.141-.12.252-.176.333-.166.08 0 .121.04.121.121.01.08-.03.166-.121.257-1.342 1.18-2.548 1.892-3.618 2.135-1.07.242-1.71.015-1.922-.682-.212-.696.292-1.856 1.513-3.481.344-.474.394-.858.152-1.15-.242-.303-.61-.59-1.105-.863a.178.178 0 0 1-.046-.03c-.1-.071-.191-.096-.272-.076-.07.01-.166.1-.288.272a7.555 7.555 0 0 1-.272.348c-.162.202-.303.313-.424.333-.121.01-.212-.03-.272-.12a.442.442 0 0 1-.046-.303c.03-.101.08-.157.152-.167.07-.01.216-.141.439-.393.1-.142.126-.268.075-.379a.98.98 0 0 0-.212-.348zm.727-.59c.04-.253.015-.475-.076-.666-.09-.192-.192-.288-.302-.288-.111-.01-.162.146-.152.47.01.05.04.136.09.257.051.11.107.217.167.318.071.1.137.15.197.15.02 0 .03-.01.03-.03.01-.03.016-.06.016-.09l.03-.121z" fill="#30373E"></path><path d="M104.516 28.488c.252-.14.469-.126.651.046a.695.695 0 0 1 .242.605c-.01.243-.172.414-.484.515-.354.121-.727.48-1.121 1.075a12.12 12.12 0 0 0-1.029 1.922c-.282.676-.449 1.206-.499 1.59-.051.766.09 1.14.423 1.12.333-.02.899-.343 1.696-.97a73.479 73.479 0 0 0 2.649-2.194 58.813 58.813 0 0 1 2.709-2.24c.848-.666 1.484-1.05 1.907-1.15.565.06.838.237.818.53-.02.282-.136.605-.348.968-.031.05-.061.106-.091.166a18.121 18.121 0 0 1-1.393 2.256c-.212.313-.419.625-.62.938-.253.394-.5.797-.742 1.211-.172.293-.348.58-.53.863l-.091.151c-.08.111-.156.227-.227.349a.43.43 0 0 0-.03.348c.03.161-.015.287-.136.378-.263.192-.454.368-.575.53a3.418 3.418 0 0 0-.333.545 6.773 6.773 0 0 1-.333.575c-.111.192-.278.474-.5.848a87.243 87.243 0 0 1-1.71 2.815c-.677 1.1-1.358 2.054-2.044 2.86-.676.808-1.231 1.177-1.665 1.106-.212-.06-.323-.197-.333-.409a1.66 1.66 0 0 1 .076-.65c.07-.233.141-.43.212-.591l.03-.09c.555-1.333 1.342-2.625 2.361-3.876a23.771 23.771 0 0 1 3.179-3.254c.222-.182.388-.353.499-.515.122-.151.248-.333.379-.545.03-.05.06-.096.091-.136l3.012-4.829c.535-.857.747-1.327.636-1.407-.111-.081-.439.096-.984.53-.545.423-1.206.973-1.983 1.65a79.074 79.074 0 0 1-3.012 2.467c-.999.777-1.786 1.23-2.362 1.362-.474.08-.857-.025-1.15-.318-.283-.283-.389-.828-.318-1.635.131-.989.495-1.983 1.09-2.982.605-.999 1.266-1.841 1.983-2.527zm-1.484 14.88a.906.906 0 0 1 .076-.106c.131-.202.338-.515.621-.938.282-.414.57-.853.863-1.317.302-.454.544-.843.726-1.166.182-.313.237-.464.167-.454-.091.04-.303.277-.636.711-.333.434-.712.949-1.135 1.544a71.05 71.05 0 0 0-1.136 1.68c-.343.525-.57.899-.681 1.12-.192.475-.287.763-.287.863 0 .101.06.076.181-.075a6 6 0 0 0 .439-.606c.182-.252.343-.5.485-.742.151-.242.257-.413.317-.514z" fill="#30373E"></path></g></svg>