<svg width="114" height="54" viewBox="0 0 114 54" fill="none" xmlns="http://www.w3.org/2000/svg">
<path d="M25.776 29.74V31H16.344V29.74L16.992 29.668C17.712 29.596 18.24 29.452 18.576 29.236C18.936 29.02 19.116 28.708 19.116 28.3C19.116 27.964 19.032 27.592 18.864 27.184L17.244 23.26H7.344L5.76 27.184C5.592 27.592 5.508 27.952 5.508 28.264C5.508 28.672 5.676 28.996 6.012 29.236C6.348 29.452 6.852 29.596 7.524 29.668L8.172 29.74V31H0.324V29.74L0.828 29.668C1.476 29.572 2.004 29.32 2.412 28.912C2.844 28.48 3.252 27.808 3.636 26.896L12.564 5.548H13.644L22.572 26.932C22.98 27.892 23.364 28.564 23.724 28.948C24.108 29.332 24.636 29.572 25.308 29.668L25.776 29.74ZM16.56 21.604L12.24 11.164L8.028 21.604H16.56ZM50.5659 29.74V31H45.3099C45.0219 30.688 44.5899 30.148 44.0139 29.38C43.4379 28.588 42.8859 27.808 42.3579 27.04L38.3619 21.172C37.8579 20.452 37.4619 19.984 37.1739 19.768C36.8859 19.552 36.5019 19.444 36.0219 19.444H34.2579V27.652C34.2579 28.324 34.4619 28.816 34.8699 29.128C35.2779 29.416 35.8539 29.596 36.5979 29.668L37.2459 29.74V31H27.7419V29.74L28.3899 29.668C29.1339 29.596 29.7099 29.416 30.1179 29.128C30.5259 28.816 30.7299 28.324 30.7299 27.652V9.148C30.7299 8.476 30.5259 7.996 30.1179 7.708C29.7099 7.396 29.1339 7.204 28.3899 7.132L27.7419 7.06V5.8H38.2179C39.7539 5.8 41.1939 6.028 42.5379 6.484C43.8819 6.916 44.9739 7.624 45.8139 8.608C46.6779 9.568 47.1099 10.804 47.1099 12.316C47.1099 14.044 46.5219 15.484 45.3459 16.636C44.1699 17.764 42.6579 18.544 40.8099 18.976L45.7419 25.924C46.7259 27.34 47.5059 28.3 48.0819 28.804C48.6819 29.284 49.3419 29.572 50.0619 29.668L50.5659 29.74ZM37.6059 17.788C39.4299 17.788 40.8579 17.392 41.8899 16.6C42.9219 15.784 43.4379 14.488 43.4379 12.712C43.4379 10.792 42.8259 9.436 41.6019 8.644C40.4019 7.852 38.9019 7.456 37.1019 7.456H34.2579V17.788H37.6059ZM63.5048 31.54C61.2248 31.54 59.1488 31 57.2768 29.92C55.4048 28.816 53.9168 27.268 52.8128 25.276C51.7328 23.284 51.1928 21.016 51.1928 18.472C51.1928 15.904 51.7328 13.624 52.8128 11.632C53.9168 9.616 55.4048 8.056 57.2768 6.952C59.1488 5.824 61.2248 5.26 63.5048 5.26C65.7848 5.26 67.8608 5.812 69.7328 6.916C71.6048 7.996 73.0808 9.532 74.1608 11.524C75.2648 13.516 75.8168 15.784 75.8168 18.328C75.8168 20.896 75.2648 23.188 74.1608 25.204C73.0808 27.196 71.6048 28.756 69.7328 29.884C67.8608 30.988 65.7848 31.54 63.5048 31.54ZM63.7568 29.92C65.3168 29.92 66.7088 29.464 67.9328 28.552C69.1568 27.64 70.1048 26.368 70.7768 24.736C71.4488 23.104 71.7848 21.232 71.7848 19.12C71.7848 16.84 71.4488 14.776 70.7768 12.928C70.1048 11.056 69.1208 9.58 67.8248 8.5C66.5288 7.42 65.0048 6.88 63.2528 6.88C61.6928 6.88 60.3008 7.336 59.0768 8.248C57.8768 9.16 56.9288 10.432 56.2328 12.064C55.5608 13.696 55.2248 15.568 55.2248 17.68C55.2248 19.936 55.5608 22 56.2328 23.872C56.9288 25.72 57.9248 27.196 59.2208 28.3C60.5168 29.38 62.0288 29.92 63.7568 29.92Z" fill="white"/>
<path d="M49.5127 34.4902C49.4017 34.4902 49.3109 34.4701 49.2402 34.4297C49.1797 34.3792 49.1545 34.2985 49.1646 34.1875C49.3361 34.0361 49.4622 33.91 49.543 33.8091C49.6338 33.6981 49.6943 33.6123 49.7246 33.5518C49.7549 33.4811 49.7751 33.4155 49.7852 33.355C49.8053 33.2944 49.8306 33.2339 49.8608 33.1733C49.8911 33.1027 49.9466 33.0169 50.0273 32.916C50.1383 32.8857 50.2443 32.8958 50.3452 32.9463C50.4461 32.9867 50.5168 33.0623 50.5571 33.1733C50.5975 33.3045 50.6126 33.4256 50.6025 33.5366C50.5723 33.7687 50.4461 33.9907 50.2241 34.2026C50.0122 34.4045 49.7751 34.5003 49.5127 34.4902ZM43.8213 42.5732C44.1745 42.321 44.4419 42.1141 44.6235 41.9526C44.7951 41.8013 44.9414 41.6348 45.0625 41.4531C45.1836 41.2816 45.3299 41.0444 45.5015 40.7417C45.562 40.6408 45.6276 40.5247 45.6982 40.3936C46.0716 39.7679 46.4299 39.1675 46.7729 38.5923C47.005 38.1987 47.2321 37.8153 47.4541 37.4419C47.5348 37.3006 47.6004 37.1846 47.6509 37.0938C47.7215 36.9928 47.7669 36.9172 47.7871 36.8667C47.8073 36.8162 47.8073 36.7708 47.7871 36.7305C47.7669 36.7002 47.7568 36.6094 47.7568 36.458C47.7669 36.2965 47.8678 36.0745 48.0596 35.792C48.2513 35.5094 48.4481 35.3026 48.6499 35.1714C48.8517 35.0402 49.0334 34.9847 49.1948 35.0049C49.3563 35.015 49.4622 35.1512 49.5127 35.4136C49.5026 35.4943 49.4774 35.575 49.437 35.6558C49.4067 35.7264 49.3866 35.7718 49.3765 35.792C49.104 36.236 48.8114 36.7355 48.4985 37.2905C48.3875 37.4722 48.2765 37.6639 48.1655 37.8657C48.0545 38.0474 47.9486 38.234 47.8477 38.4258C47.6055 38.8496 47.3431 39.2886 47.0605 39.7427C46.7578 40.217 46.6872 40.439 46.8486 40.4087C47 40.3885 47.3229 40.222 47.8174 39.9092C48.4329 39.5257 49.2049 39.117 50.1333 38.6831C50.4259 38.562 50.6025 38.557 50.6631 38.668C50.7337 38.7689 50.6429 38.89 50.3906 39.0312C49.2705 39.6064 48.0798 40.3784 46.8184 41.3472C46.7074 41.4279 46.6115 41.5036 46.5308 41.5742C46.2179 41.8063 45.9757 41.998 45.8042 42.1494C45.6326 42.3008 45.4712 42.4774 45.3198 42.6792C45.1685 42.8911 44.9666 43.1938 44.7144 43.5874C43.6951 45.2121 42.6305 46.751 41.5205 48.2041C40.4004 49.6572 39.2853 50.853 38.1753 51.7915C37.0653 52.7401 36.0057 53.2547 34.9966 53.3354C34.603 53.3556 34.3053 53.285 34.1035 53.1235C33.7503 52.8208 33.6847 52.4121 33.9067 51.8975C34.1187 51.3929 34.4315 50.8934 34.8452 50.3989C35.259 49.9045 35.597 49.526 35.8594 49.2637C35.8896 49.2435 35.9149 49.2183 35.9351 49.188C38.0138 47.089 40.6426 44.8841 43.8213 42.5732ZM42.7012 45.1768C42.7214 45.1566 42.7365 45.1364 42.7466 45.1162C43.2209 44.43 43.4731 44.0163 43.5034 43.875C43.5337 43.7438 43.2663 43.8901 42.7012 44.314C40.1986 46.2313 38.14 48.0477 36.5254 49.7632C36.5153 49.7733 36.5002 49.7884 36.48 49.8086C36.369 49.9297 36.1722 50.1416 35.8896 50.4443C35.597 50.7572 35.3145 51.0902 35.042 51.4434C34.7594 51.7965 34.5778 52.0942 34.4971 52.3364C34.4062 52.5887 34.4971 52.7148 34.7695 52.7148C35.9805 52.6038 37.2671 51.842 38.6294 50.4292C39.9816 49.0164 41.3389 47.2656 42.7012 45.1768ZM56.4054 35.1108C56.9705 35.2319 57.1975 35.4741 57.0865 35.8374C56.9755 36.2007 56.6829 36.5791 56.2086 36.9727C55.7343 37.3662 55.2398 37.6639 54.7252 37.8657C54.2206 38.0575 53.8523 38.0474 53.6202 37.8354C53.4587 38.0373 53.2721 38.3047 53.0601 38.6377C52.8583 38.9606 52.7423 39.2482 52.712 39.5005C52.712 39.884 52.9744 40.0505 53.4991 40C54.0238 39.9495 54.6495 39.783 55.3761 39.5005C56.1026 39.2179 56.7686 38.9303 57.3741 38.6377C57.9796 38.335 58.363 38.1281 58.5245 38.0171C58.6456 37.9364 58.7566 37.901 58.8575 37.9111C58.9685 37.9212 59.0139 37.9767 58.9937 38.0776C58.9836 38.1785 58.8525 38.3198 58.6002 38.5015C58.2974 38.7134 57.7828 39.0161 57.0562 39.4097C56.3398 39.7931 55.5779 40.1261 54.7706 40.4087C53.9633 40.6912 53.2771 40.7871 52.712 40.6963C52.1469 40.6055 51.8744 40.1917 51.8946 39.4551C51.9451 38.9606 52.2276 38.3703 52.7423 37.6841C53.2569 36.9979 53.8523 36.3975 54.5284 35.8828C55.2146 35.3581 55.8402 35.1007 56.4054 35.1108ZM56.1026 35.9434C56.0118 35.9736 55.8554 36.0594 55.6334 36.2007C55.4114 36.3319 55.1742 36.4832 54.922 36.6548C54.6798 36.8263 54.4679 36.9878 54.2862 37.1392C54.1046 37.2905 53.9986 37.4015 53.9683 37.4722C53.9381 37.5428 54.0289 37.5428 54.2408 37.4722C54.5334 37.3612 54.8917 37.1694 55.3155 36.897C55.7393 36.6144 56.0623 36.3571 56.2843 36.125C56.3852 36.014 56.4255 35.9434 56.4054 35.9131C56.3953 35.8828 56.2943 35.8929 56.1026 35.9434ZM62.2082 38.7739C61.5421 39.2583 61.0981 39.445 60.8761 39.334C60.6642 39.223 60.6138 38.9404 60.7248 38.4863C60.8257 38.0221 61.0275 37.5125 61.3302 36.9575C61.7339 36.2108 62.0467 35.7415 62.2687 35.5498C62.4907 35.3581 62.7228 35.3429 62.965 35.5044C63.0861 35.7163 63.0861 35.9232 62.965 36.125C62.854 36.3268 62.6875 36.5186 62.4655 36.7002C62.2233 36.902 62.0467 37.0938 61.9357 37.2754C61.8247 37.457 61.7087 37.679 61.5876 37.9414C61.5573 38.0221 61.522 38.1029 61.4816 38.1836C61.3908 38.3652 61.3555 38.4813 61.3756 38.5317C61.4059 38.5721 61.522 38.5065 61.7238 38.335C62.0669 38.0726 62.4453 37.7547 62.859 37.3813C63.2627 37.0282 63.6462 36.7103 64.0094 36.4277C64.3828 36.1452 64.6956 35.9787 64.9479 35.9282C65.5029 35.8879 65.8763 36.1401 66.068 36.6851C66.2598 37.23 66.3809 37.7547 66.4313 38.2593C66.4414 38.3602 66.4515 38.451 66.4616 38.5317C66.5423 39.0464 66.6483 39.5156 66.7795 39.9395C66.9106 40.3633 67.0671 40.6408 67.2487 40.772C67.4303 40.9032 67.6977 40.8325 68.0509 40.5601C68.4142 40.2876 68.9137 39.7225 69.5495 38.8647C70.1953 37.9969 71.0177 36.7507 72.0168 35.126C72.0874 34.9847 72.1782 34.8989 72.2892 34.8687C72.4103 34.8384 72.4961 34.8687 72.5465 34.9595C72.6071 35.0503 72.5819 35.2017 72.4709 35.4136C72.3296 35.6356 72.1782 35.8879 72.0168 36.1704C71.5425 36.9777 70.9976 37.8455 70.382 38.7739C69.7664 39.6922 69.1408 40.4289 68.505 40.9839C67.8794 41.549 67.3092 41.6953 66.7946 41.4229C66.29 41.1605 65.9116 40.2371 65.6593 38.6528C65.5887 38.1281 65.5029 37.6589 65.402 37.2451C65.3011 36.8213 65.1851 36.6043 65.0539 36.5942C64.8621 36.6548 64.5594 36.8465 64.1457 37.1694C63.742 37.4924 63.3434 37.8254 62.9499 38.1685C62.6269 38.4409 62.3797 38.6427 62.2082 38.7739ZM79.6663 35.1108C80.2314 35.2319 80.4584 35.4741 80.3474 35.8374C80.2364 36.2007 79.9438 36.5791 79.4695 36.9727C78.9952 37.3662 78.5007 37.6639 77.9861 37.8657C77.4815 38.0575 77.1132 38.0474 76.8811 37.8354C76.7196 38.0373 76.5329 38.3047 76.321 38.6377C76.1192 38.9606 76.0032 39.2482 75.9729 39.5005C75.9729 39.884 76.2353 40.0505 76.76 40C77.2847 39.9495 77.9104 39.783 78.637 39.5005C79.3635 39.2179 80.0295 38.9303 80.635 38.6377C81.2405 38.335 81.6239 38.1281 81.7854 38.0171C81.9065 37.9364 82.0175 37.901 82.1184 37.9111C82.2294 37.9212 82.2748 37.9767 82.2546 38.0776C82.2445 38.1785 82.1134 38.3198 81.8611 38.5015C81.5583 38.7134 81.0437 39.0161 80.3171 39.4097C79.6007 39.7931 78.8388 40.1261 78.0315 40.4087C77.2242 40.6912 76.538 40.7871 75.9729 40.6963C75.4078 40.6055 75.1353 40.1917 75.1555 39.4551C75.206 38.9606 75.4885 38.3703 76.0032 37.6841C76.5178 36.9979 77.1132 36.3975 77.7893 35.8828C78.4755 35.3581 79.1011 35.1007 79.6663 35.1108ZM79.3635 35.9434C79.2727 35.9736 79.1163 36.0594 78.8943 36.2007C78.6723 36.3319 78.4351 36.4832 78.1829 36.6548C77.9407 36.8263 77.7288 36.9878 77.5471 37.1392C77.3655 37.2905 77.2595 37.4015 77.2292 37.4722C77.199 37.5428 77.2898 37.5428 77.5017 37.4722C77.7943 37.3612 78.1526 37.1694 78.5764 36.897C79.0002 36.6144 79.3232 36.3571 79.5452 36.125C79.6461 36.014 79.6864 35.9434 79.6663 35.9131C79.6562 35.8828 79.5552 35.8929 79.3635 35.9434ZM77.8099 48.8853C77.6989 48.8348 77.6535 48.7288 77.6737 48.5674C77.6837 48.4059 77.7947 48.1335 78.0067 47.75C78.2085 47.3665 78.5364 46.8065 78.9905 46.0698C79.4346 45.3332 80.0299 44.3594 80.7767 43.1484C81.6243 41.7962 82.7041 40.0605 84.0159 37.9414C84.359 37.2956 85.0604 36.0846 86.1199 34.3086C87.1795 32.5225 88.3602 30.5951 89.6619 28.5264C90.9637 26.4476 92.1494 24.6413 93.2191 23.1074C94.2988 21.5635 95.0355 20.7007 95.429 20.519C96.0446 20.3374 96.3473 20.4888 96.3372 20.9731C96.3372 21.4474 96.1657 22.063 95.8226 22.8198C95.4896 23.5666 95.1313 24.2729 94.7479 24.939C94.3745 25.5949 94.1273 26.0187 94.0062 26.2104C93.9961 26.2205 93.991 26.2306 93.991 26.2407C92.6085 28.4709 91.0797 30.7111 89.4046 32.9614C87.7396 35.2118 86.458 36.7204 85.5599 37.4873C85.3883 37.6084 85.2723 37.6841 85.2117 37.7144C85.1613 37.7446 85.1159 37.7749 85.0755 37.8052C85.0452 37.8354 85.0049 37.8859 84.9544 37.9565C84.904 38.0272 84.8333 38.1382 84.7425 38.2896L78.7332 48.083C78.7635 48.083 78.7585 48.1335 78.7181 48.2344C78.6676 48.3454 78.597 48.4614 78.5062 48.5825C78.4154 48.7137 78.3094 48.8096 78.1883 48.8701C78.0571 48.9408 77.931 48.9458 77.8099 48.8853ZM86.4681 35.5044C86.3268 35.7264 86.2562 35.8525 86.2562 35.8828C86.2663 35.9131 86.3621 35.8172 86.5438 35.5952C87.5428 34.3237 88.6579 32.7949 89.889 31.0088C91.1201 29.2227 92.2554 27.492 93.2947 25.8169C94.536 23.7583 95.2524 22.4313 95.4442 21.8359C95.646 21.2406 95.3887 21.4121 94.6722 22.3506C93.6631 23.7432 92.6691 25.2316 91.6903 26.8159C90.7114 28.4002 89.7528 29.9946 88.8143 31.5991C88.0171 32.9513 87.235 34.2531 86.4681 35.5044ZM94.0873 33.582C93.8048 33.2389 93.6433 32.9059 93.6029 32.583C93.5827 32.0986 93.7291 31.7555 94.0419 31.5537C94.3547 31.3519 94.7281 31.4175 95.162 31.7505C95.3235 31.9321 95.4244 32.1592 95.4647 32.4316C95.5152 32.7041 95.4698 33.0169 95.3285 33.3701C95.268 33.4912 95.2427 33.5871 95.2528 33.6577C95.273 33.7183 95.3487 33.7788 95.4799 33.8394C96.2771 34.1925 96.827 34.6012 97.1298 35.0654C97.4325 35.5296 97.2963 36.1401 96.7211 36.897C96.4184 37.2905 96.1308 37.7749 95.8583 38.3501C95.5858 38.9152 95.5001 39.4147 95.601 39.8486C95.7221 40.1312 96.0399 40.1968 96.5546 40.0454C97.0793 39.9041 97.6545 39.6569 98.2802 39.3037C98.9058 38.9505 99.4457 38.6074 99.8998 38.2744C100.041 38.1533 100.152 38.0978 100.233 38.1079C100.314 38.1079 100.354 38.1483 100.354 38.229C100.364 38.3097 100.324 38.3955 100.233 38.4863C98.8907 39.667 97.6848 40.3784 96.6151 40.6206C95.5455 40.8628 94.9047 40.6357 94.6928 39.9395C94.4809 39.2432 94.9854 38.0827 96.2064 36.458C96.5495 35.9837 96.6 35.6003 96.3578 35.3076C96.1156 35.0049 95.7473 34.7173 95.2528 34.4448C95.2326 34.4347 95.2175 34.4246 95.2074 34.4146C95.1065 34.3439 95.0157 34.3187 94.935 34.3389C94.8643 34.349 94.7685 34.4398 94.6474 34.6113C94.5263 34.7728 94.4354 34.8888 94.3749 34.9595C94.2134 35.1613 94.0722 35.2723 93.9511 35.2925C93.83 35.3026 93.7392 35.2622 93.6786 35.1714C93.6282 35.0806 93.613 34.9797 93.6332 34.8687C93.6635 34.7677 93.7139 34.7122 93.7846 34.7021C93.8552 34.6921 94.0015 34.5609 94.2235 34.3086C94.3244 34.1673 94.3497 34.0412 94.2992 33.9302C94.2589 33.8091 94.1882 33.693 94.0873 33.582ZM94.8139 32.9917C94.8542 32.7394 94.829 32.5174 94.7382 32.3257C94.6474 32.134 94.5465 32.0381 94.4354 32.0381C94.3244 32.028 94.274 32.1844 94.2841 32.5073C94.2942 32.5578 94.3244 32.6436 94.3749 32.7646C94.4254 32.8757 94.4809 32.9816 94.5414 33.0825C94.612 33.1834 94.6776 33.2339 94.7382 33.2339C94.7584 33.2339 94.7685 33.2238 94.7685 33.2036C94.7785 33.1733 94.7836 33.1431 94.7836 33.1128C94.7937 33.0724 94.8038 33.0321 94.8139 32.9917ZM104.84 33.7485C105.092 33.6073 105.309 33.6224 105.491 33.7939C105.672 33.9554 105.753 34.1572 105.733 34.3994C105.723 34.6416 105.561 34.8132 105.249 34.9141C104.895 35.0352 104.522 35.3934 104.128 35.9888C103.735 36.5841 103.392 37.2249 103.099 37.9111C102.817 38.5872 102.65 39.117 102.6 39.5005C102.549 40.2674 102.69 40.6408 103.023 40.6206C103.356 40.6004 103.922 40.2775 104.719 39.6519C105.516 39.0262 106.399 38.2946 107.368 37.457C108.326 36.6195 109.229 35.8727 110.077 35.2168C110.925 34.5508 111.561 34.1673 111.984 34.0664C112.549 34.127 112.822 34.3035 112.802 34.5962C112.782 34.8787 112.666 35.2017 112.454 35.5649C112.423 35.6154 112.393 35.6709 112.363 35.7314C111.959 36.5085 111.495 37.2603 110.97 37.9868C110.758 38.2996 110.551 38.6125 110.35 38.9253C110.097 39.3188 109.85 39.7225 109.608 40.1362C109.436 40.4289 109.26 40.7165 109.078 40.999C109.048 41.0495 109.018 41.0999 108.987 41.1504C108.907 41.2614 108.831 41.3774 108.76 41.4985C108.7 41.6196 108.69 41.7357 108.73 41.8467C108.76 42.0081 108.715 42.1343 108.594 42.2251C108.331 42.4168 108.14 42.5934 108.019 42.7549C107.897 42.9163 107.786 43.098 107.686 43.2998C107.605 43.4613 107.494 43.653 107.353 43.875C107.242 44.0667 107.075 44.3493 106.853 44.7227C106.399 45.5098 105.829 46.4482 105.143 47.5381C104.466 48.638 103.785 49.5916 103.099 50.3989C102.423 51.2062 101.868 51.5745 101.434 51.5039C101.222 51.4434 101.111 51.3071 101.101 51.0952C101.081 50.8934 101.106 50.6764 101.177 50.4443C101.247 50.2122 101.318 50.0155 101.389 49.854C101.399 49.8237 101.409 49.7935 101.419 49.7632C101.974 48.4312 102.761 47.1395 103.78 45.8882C104.799 44.6369 105.859 43.5521 106.959 42.6338C107.181 42.4521 107.347 42.2806 107.458 42.1191C107.58 41.9678 107.706 41.7861 107.837 41.5742C107.867 41.5238 107.897 41.4784 107.928 41.438L110.94 36.6094C111.475 35.7516 111.687 35.2824 111.576 35.2017C111.465 35.1209 111.137 35.2975 110.592 35.7314C110.047 36.1553 109.386 36.7052 108.609 37.3813C107.6 38.2492 106.596 39.0716 105.597 39.8486C104.598 40.6257 103.811 41.0798 103.235 41.2109C102.761 41.2917 102.378 41.1857 102.085 40.8931C101.802 40.6105 101.696 40.0656 101.767 39.2583C101.898 38.2694 102.262 37.2754 102.857 36.2764C103.462 35.2773 104.123 34.4347 104.84 33.7485ZM103.356 48.6279C103.367 48.6077 103.392 48.5724 103.432 48.522C103.563 48.3201 103.77 48.0073 104.053 47.5835C104.335 47.1698 104.623 46.7308 104.916 46.2666C105.218 45.8125 105.46 45.424 105.642 45.1011C105.824 44.7882 105.879 44.6369 105.809 44.647C105.718 44.6873 105.506 44.9245 105.173 45.3584C104.84 45.7923 104.461 46.307 104.038 46.9023C103.624 47.4977 103.245 48.0578 102.902 48.5825C102.559 49.1073 102.332 49.4806 102.221 49.7026C102.029 50.1769 101.934 50.4645 101.934 50.5654C101.934 50.6663 101.994 50.6411 102.115 50.4897C102.236 50.3485 102.383 50.1466 102.554 49.8843C102.736 49.632 102.897 49.3848 103.039 49.1426C103.19 48.9004 103.296 48.7288 103.356 48.6279Z" fill="white"/>
</svg>
